<?xml version="1.0" encoding="UTF-8" standalone="no"?>
<!-- Created with Inkscape (http://www.inkscape.org/) -->

<svg
   xmlns:dc="http://purl.org/dc/elements/1.1/"
   xmlns:cc="http://creativecommons.org/ns#"
   xmlns:rdf="http://www.w3.org/1999/02/22-rdf-syntax-ns#"
   xmlns:svg="http://www.w3.org/2000/svg"
   xmlns="http://www.w3.org/2000/svg"
   xmlns:sodipodi="http://sodipodi.sourceforge.net/DTD/sodipodi-0.dtd"
   xmlns:inkscape="http://www.inkscape.org/namespaces/inkscape"
   width="423.33334mm"
   height="423.33334mm"
   viewBox="0 0 1500.0001 1500"
   id="svg2"
   version="1.1"
   inkscape:version="0.91 r13725"
   sodipodi:docname="Spinner5.svg"
   inkscape:export-filename="/home/anna/Desktop/99/starter kit/Spinner3.png"
   inkscape:export-xdpi="90"
   inkscape:export-ydpi="90">
  <defs
     id="defs4" />
  <sodipodi:namedview
     id="base"
     pagecolor="#ffffff"
     bordercolor="#666666"
     borderopacity="1.0"
     inkscape:pageopacity="0.0"
     inkscape:pageshadow="2"
     inkscape:zoom="0.23267981"
     inkscape:cx="-345.94735"
     inkscape:cy="634.53729"
     inkscape:document-units="px"
     inkscape:current-layer="layer1"
     showgrid="false"
     inkscape:window-width="1839"
     inkscape:window-height="1050"
     inkscape:window-x="81"
     inkscape:window-y="30"
     inkscape:window-maximized="1"
     showguides="true"
     fit-margin-top="0"
     fit-margin-left="0"
     fit-margin-right="0"
     fit-margin-bottom="0"
     inkscape:guide-bbox="true" />
  <metadata
     id="metadata7">
    <rdf:RDF>
      <cc:Work
         rdf:about="">
        <dc:format>image/svg+xml</dc:format>
        <dc:type
           rdf:resource="http://purl.org/dc/dcmitype/StillImage" />
        <dc:title />
      </cc:Work>
    </rdf:RDF>
  </metadata>
  <g
     inkscape:label="Layer 1"
     inkscape:groupmode="layer"
     id="layer1"
     transform="translate(1693.528,1513.8401)">
    <path
       style="opacity:1;fill:#ff6600;fill-opacity:1;fill-rule:nonzero;stroke:none;stroke-width:59.49100113;stroke-linecap:round;stroke-linejoin:round;stroke-miterlimit:4;stroke-dasharray:none;stroke-dashoffset:0;stroke-opacity:1"
       d="m -938.47217,-1427.6471 c -161.46943,-0.1544 -291.36893,145.9747 -276.05873,303.1584 3.7667,38.6726 11.3848,75.6194 20.0147,110.6732 l 136.9707,-77.2531 a 129.82817,132.99469 0 0 1 -7.5913,-44.3995 129.82817,132.99469 0 0 1 129.82825,-132.9962 129.82817,132.99469 0 0 1 129.82822,132.9962 129.82817,132.99469 0 0 1 -6.4983,41.2669 l 131.09008,77.4554 c 9.6481,-35.5354 17.1491,-72.5837 17.83534,-111.1154 -0.92033,-162.4509 -115.30161,-299.632 -275.41896,-299.7859 z m 94.89515,386.1744 a 129.82817,132.99469 0 0 1 -9.25536,8.5844 l 125.05836,214.2173 c -1.09457,-42.33735 13.24519,-88.23946 28.71249,-137.41736 l -144.51549,-85.38434 z m -180.98148,2.3682 -153.8264,86.75964 c 15.0609,55.75458 28.1317,105.72163 25.1334,148.80544 l 132.4476,-231.98158 a 129.82817,132.99469 0 0 1 -3.7546,-3.5835 z m 56.83177,32.2472 -329.56257,577.23107 a 129.82817,132.99469 0 0 1 10.9904,25.14899 l 703.11145,-3.38798 a 129.82817,132.99469 0 0 1 11.27709,-24.21149 l -334.98119,-573.79419 a 129.82817,132.99469 0 0 1 -28.417,3.3969 129.82817,132.99469 0 0 1 -32.41818,-4.3833 z M -1205.14,-712.65433 c -34.4263,22.54336 -84.2678,37.83691 -135.8379,50.97776 l -1.8572,184.67386 a 129.82817,132.99469 0 0 1 2.3194,1.45739 l 135.3757,-237.10901 z m 542.249,5.12532 133.53172,228.73122 1.79278,-178.19778 c -49.76782,-12.74004 -98.76067,-27.8253 -135.3245,-50.53344 z m -739.7129,60.89739 c -50.278,12.1152 -96.9628,24.11095 -126.5491,40.9315 -142.1967,80.84165 -204.6458,245.85703 -125.6894,378.8075 78.714,132.541882 254.5884,164.876912 397.4671,86.49283 27.5986,-15.14065 58.0748,-43.83267 90.5363,-75.88015 l -131.8121,-77.87949 a 129.82817,132.99469 0 0 1 -110.8532,64.08539 129.82817,132.99469 0 0 1 -129.8282,-132.99404 129.82817,132.99469 0 0 1 129.8282,-132.99631 129.82817,132.99469 0 0 1 5.383,0.27549 l 1.5174,-150.84272 z m 936.36144,4.63878 -1.47076,146.16839 a 129.82817,132.99469 0 0 1 6.59829,-0.23994 129.82817,132.99469 0 0 1 129.8282,132.99631 129.82817,132.99469 0 0 1 -129.8282,132.99404 129.82817,132.99469 0 0 1 -109.05372,-60.85961 l -138.75697,78.26169 c 31.25136,30.98961 60.73279,58.56952 87.89035,73.51634 141.71794,77.997912 317.93439,45.293772 396.48283,-86.36634 78.83737,-132.14457 19.43828,-296.52796 -121.62151,-377.18116 -28.57099,-16.33589 -72.37534,-27.74552 -120.06851,-39.28972 z m -128.74634,294.48731 -268.41858,1.29525 c 37.68383,21.04599 74.31036,54.23947 109.23139,88.48797 l 159.18719,-89.78322 z m -421.5518,2.03506 -246.0999,1.18856 141.0608,83.34485 c 33.7222,-32.65898 69.0086,-64.10336 105.0391,-84.53341 z"
       id="path4220-0"
       inkscape:connector-curvature="0" />
  </g>
</svg>
