<?xml version="1.0" standalone="no"?>
<!DOCTYPE svg PUBLIC "-//W3C//DTD SVG 20010904//EN"
 "http://www.w3.org/TR/2001/REC-SVG-20010904/DTD/svg10.dtd">
<svg version="1.0" xmlns="http://www.w3.org/2000/svg"
 width="16.000000pt" height="16.000000pt" viewBox="0 0 16.000000 16.000000"
 preserveAspectRatio="xMidYMid meet">
<metadata>
Created by potrace 1.11, written by Peter Selinger 2001-2013
</metadata>
<g transform="translate(0.000000,16.000000) scale(0.006154,-0.006154)"
fill="#000000" stroke="none">
<path d="M274 2001 c-9 -10 -4 -1361 6 -1362 13 0 2027 0 2040 0 6 1 9 247 7
682 l-2 682 -1023 1 c-563 0 -1026 -1 -1028 -3z m1925 -125 c8 -9 10 -144 9
-482 l-3 -469 -897 -3 -898 -2 0 478 c0 263 3 482 7 485 3 4 403 7 888 7 733
0 884 -2 894 -14z"/>
<path d="M596 1532 c-6 -9 62 -220 83 -260 15 -28 66 -30 79 -4 5 9 17 49 27
87 l19 70 20 -77 c25 -89 33 -101 72 -96 28 3 31 10 76 138 25 74 44 138 42
142 -8 13 -61 9 -72 -4 -5 -7 -15 -33 -22 -57 -27 -103 -30 -104 -55 -16 l-22
80 -39 0 -39 0 -22 -75 c-12 -41 -22 -77 -23 -80 -1 -3 -14 31 -28 75 -26 76
-29 80 -59 83 -17 2 -34 -1 -37 -6z"/>
<path d="M1096 1532 c-6 -9 62 -220 83 -260 15 -28 66 -30 79 -4 5 9 17 49 27
87 l19 70 20 -77 c25 -89 33 -101 72 -96 28 3 31 10 76 138 25 74 44 138 42
142 -8 13 -61 9 -72 -4 -5 -7 -15 -33 -22 -57 -27 -103 -30 -104 -55 -16 l-22
80 -39 0 -39 0 -22 -75 c-12 -41 -22 -77 -23 -80 -1 -3 -14 31 -28 75 -26 76
-29 80 -59 83 -17 2 -34 -1 -37 -6z"/>
<path d="M1596 1532 c-6 -9 62 -220 83 -260 15 -28 66 -30 79 -4 5 9 17 49 27
87 l19 70 20 -77 c25 -89 33 -101 72 -96 28 3 31 10 76 138 25 74 44 138 42
142 -8 13 -61 9 -72 -4 -5 -7 -15 -33 -22 -57 -27 -103 -30 -104 -55 -16 l-22
80 -39 0 -39 0 -22 -75 c-12 -41 -22 -77 -23 -80 -1 -3 -14 31 -28 75 -26 76
-29 80 -59 83 -17 2 -34 -1 -37 -6z"/>
<path d="M502 481 c-29 -49 -52 -97 -52 -105 0 -14 83 -16 850 -16 767 0 850
2 850 16 0 8 -23 56 -52 105 l-52 89 -746 0 -746 0 -52 -89z m1537 -11 c17
-28 31 -52 31 -55 0 -3 -346 -5 -770 -5 -424 0 -770 2 -770 5 0 3 14 27 31 55
l31 50 708 0 708 0 31 -50z"/>
<path d="M645 474 c-24 -37 -10 -45 76 -42 l74 3 0 30 0 30 -66 3 c-62 3 -67
1 -84 -24z"/>
<path d="M880 480 c-24 -45 -9 -51 117 -48 l118 3 0 30 0 30 -112 3 c-105 2
-113 1 -123 -18z"/>
<path d="M1184 486 c-3 -8 -4 -23 -2 -33 3 -16 15 -18 123 -18 l120 0 0 30 0
30 -118 3 c-96 2 -118 0 -123 -12z"/>
<path d="M1494 486 c-3 -8 -4 -23 -2 -33 3 -17 21 -18 242 -21 135 -1 244 2
249 7 5 5 2 19 -8 35 l-17 26 -229 0 c-191 0 -231 -2 -235 -14z"/>
</g>
</svg>
