<?xml version="1.0" standalone="no"?>
<!DOCTYPE svg PUBLIC "-//W3C//DTD SVG 20010904//EN"
 "http://www.w3.org/TR/2001/REC-SVG-20010904/DTD/svg10.dtd">
<svg version="1.0" xmlns="http://www.w3.org/2000/svg"
 width="700.000000pt" height="700.000000pt" viewBox="0 0 700.000000 700.000000"
 preserveAspectRatio="xMidYMid meet">
<metadata>
Created by potrace 1.11, written by Peter Selinger 2001-2013
</metadata>
<g transform="translate(0.000000,700.000000) scale(0.100000,-0.100000)"
fill="#000000" stroke="none">
<path d="M3375 6588 c-411 -48 -801 -322 -995 -700 -51 -98 -114 -271 -125
-343 -3 -22 -9 -53 -12 -70 -9 -42 -8 -307 1 -380 6 -48 54 -295 71 -365 2 -8
4 -19 4 -25 3 -24 20 -39 33 -28 7 6 33 22 58 35 25 14 97 55 160 90 63 36
131 74 150 84 19 11 37 21 40 24 3 3 16 11 30 18 14 6 32 16 40 21 8 5 43 26
77 45 l61 36 -15 58 c-17 64 -22 183 -10 256 29 181 163 362 332 448 94 49
268 74 370 54 165 -32 330 -150 411 -293 66 -118 86 -196 85 -328 0 -44 -5
-96 -11 -115 -19 -64 -15 -72 58 -113 37 -21 81 -47 97 -57 17 -11 37 -23 45
-27 8 -3 50 -28 93 -55 43 -26 80 -48 82 -48 2 0 52 -29 112 -65 l108 -65 13
52 c47 190 63 302 67 454 2 121 -2 163 -31 324 -66 356 -288 696 -579 885
-103 67 -147 89 -262 131 -160 58 -382 83 -558 62z"/>
<path d="M3938 4773 c-15 -15 -13 -21 28 -92 24 -42 49 -83 54 -91 5 -8 21
-35 35 -60 14 -25 35 -61 46 -80 12 -19 71 -120 131 -225 61 -104 119 -202
129 -217 11 -15 19 -29 19 -32 0 -3 25 -46 55 -97 30 -50 55 -95 55 -100 0 -5
5 -9 10 -9 6 0 10 24 10 53 0 94 56 343 124 553 6 19 -9 30 -126 100 -73 43
-184 109 -247 146 -62 37 -115 68 -117 68 -1 0 -39 23 -84 50 -88 54 -96 56
-122 33z"/>
<path d="M2975 4704 c-71 -40 -137 -78 -145 -83 -8 -6 -58 -34 -110 -63 -52
-29 -111 -61 -130 -73 -20 -11 -68 -38 -108 -60 -39 -22 -72 -47 -72 -55 0 -9
9 -47 19 -85 30 -107 68 -284 75 -345 4 -30 9 -68 12 -83 3 -15 6 -57 6 -93 0
-36 4 -62 8 -57 9 9 38 58 69 114 11 19 135 237 276 484 141 246 257 453 258
458 5 26 -37 10 -158 -59z"/>
<path d="M3363 4593 c-11 -21 -67 -119 -123 -218 -57 -99 -129 -225 -160 -280
-31 -55 -76 -132 -98 -172 -23 -39 -50 -87 -60 -105 -51 -90 -349 -611 -382
-668 -21 -36 -74 -128 -118 -206 -44 -77 -89 -156 -101 -175 -11 -19 -29 -52
-41 -74 -12 -22 -114 -200 -226 -396 l-204 -356 26 -60 26 -60 671 3 c1492 8
2525 13 2570 13 26 1 47 6 47 11 0 6 10 31 21 56 22 45 22 46 3 80 -24 44
-529 908 -606 1037 -32 54 -58 99 -58 101 0 3 -29 51 -63 109 -35 57 -67 111
-70 118 -3 8 -172 298 -375 644 l-369 630 -44 -4 c-64 -7 -126 -6 -189 3 l-56
7 -21 -38z"/>
<path d="M2237 3236 c-15 -12 -56 -30 -222 -102 -31 -13 -315 -99 -350 -105
-21 -5 -20 26 -25 -609 -2 -289 -4 -268 14 -250 7 8 27 40 43 70 17 30 147
260 290 510 143 250 265 465 272 478 13 25 5 28 -22 8z"/>
<path d="M4820 3224 c0 -3 111 -194 246 -426 135 -231 255 -437 266 -457 11
-20 28 -47 37 -61 9 -14 26 -42 36 -62 11 -21 22 -38 25 -38 3 0 5 185 5 412
l0 412 -35 8 c-171 42 -376 115 -512 184 -38 18 -68 31 -68 28z"/>
<path d="M1329 2946 c-3 -3 -18 -7 -34 -10 -126 -23 -384 -105 -486 -155 -78
-39 -204 -120 -261 -168 -106 -89 -236 -232 -306 -335 -57 -83 -158 -295 -168
-348 0 -3 -6 -23 -12 -45 -11 -40 -16 -64 -32 -160 -9 -53 -6 -292 4 -335 37
-163 66 -245 123 -350 211 -391 614 -629 1086 -643 110 -3 229 6 307 23 25 5
56 12 70 14 14 2 52 12 85 22 33 10 65 19 70 20 40 7 237 101 310 147 59 37
190 146 295 247 72 69 74 72 55 86 -19 15 -382 230 -475 282 -25 14 -61 35
-82 48 l-36 23 -25 -38 c-75 -113 -232 -220 -362 -246 -307 -63 -597 105 -702
406 -29 85 -39 221 -22 314 48 267 277 479 542 501 40 4 73 7 74 9 2 1 5 158
7 348 3 267 1 347 -9 347 -6 0 -14 -2 -16 -4z"/>
<path d="M5729 2928 c0 -2 -2 -155 -4 -340 l-5 -338 28 -1 c83 -1 144 -13 216
-39 219 -82 379 -309 391 -552 5 -111 -30 -261 -77 -330 -10 -14 -18 -29 -18
-34 0 -11 -70 -95 -109 -129 -55 -49 -162 -110 -231 -131 -65 -19 -218 -26
-285 -13 -55 12 -129 40 -183 71 -53 30 -165 133 -193 177 l-15 24 -64 -35
c-36 -20 -87 -49 -115 -65 -27 -16 -57 -32 -65 -36 -8 -5 -24 -13 -35 -20 -12
-7 -96 -54 -188 -106 -92 -51 -170 -97 -172 -102 -7 -10 194 -197 288 -268
124 -92 351 -196 498 -227 157 -33 175 -35 334 -39 393 -9 730 127 979 396
134 145 216 290 272 484 21 73 23 100 23 306 0 250 -5 285 -75 458 -153 381
-519 709 -909 816 -213 58 -285 76 -286 73z"/>
<path d="M4040 1552 l-164 -3 74 -48 c116 -75 247 -183 387 -319 l45 -43 71
39 c40 22 140 77 222 124 83 47 170 96 195 110 112 63 245 139 247 142 3 3
-862 2 -1077 -2z"/>
<path d="M2029 1541 c-6 -2 70 -51 168 -108 98 -58 244 -145 325 -193 l146
-87 49 45 c144 136 278 245 381 311 28 18 52 34 52 36 0 4 -1108 1 -1121 -4z"/>
</g>
</svg>
